
        <svg xmlns="http://www.w3.org/2000/svg" xmlns:xlink="http://www.w3.org/1999/xlink" version="1.1" width="3200" height="712.0019041743784" viewBox="0 0 3200 712.0019041743784">
			
			<g transform="scale(10) translate(10, 10)">
				<defs id="SvgjsDefs1601"><linearGradient id="SvgjsLinearGradient1606"><stop id="SvgjsStop1607" stop-color="#7f00ff" offset="0"/><stop id="SvgjsStop1608" stop-color="#e100ff" offset="1"/></linearGradient></defs><g id="SvgjsG1602" featureKey="bQt9oe-0" transform="matrix(2.399232081723843,0,0,2.399232081723843,-2.0153550287310384,-13.291743353140633)" fill="#000"><path d="M0.84 20 l0 -13.7 l5.6 0 c4.22 0 6.98 3 6.98 6.78 c0 3.86 -2.88 6.92 -7.14 6.92 l-5.44 0 z M6.28 9.14 l-2.34 0 l0 8.02 l2.44 0 c2.22 0 3.92 -1.72 3.92 -4.04 c0 -2.28 -1.7 -3.98 -4.02 -3.98 z M22.479999999999997 14.9 l-1.78 -5.36 l-1.78 5.36 l3.56 0 z M24.18 20 l-0.78 -2.36 l-5.38 0 l-0.78 2.36 l-3.18 0 l4.84 -13.7 l3.8 0 l4.82 13.7 l-3.34 0 z M35.16 20 l-3.7 -8.18 l0 8.18 l-2.98 0 l0 -13.7 l3.72 0 l4.02 9.06 l4.02 -9.06 l3.72 0 l0 13.7 l-3.04 0 l0 -8.22 l-3.72 8.22 l-2.04 0 z M48.739999999999995 20 l-3.1 0 l0 -13.7 l3.1 0 l0 13.7 z M55.779999999999994 6.68 l0 2.46 l-4.68 -1.1 l0 -2.5 z M63.379999999999995 20.26 c-3.46 0 -5.36 -1.72 -5.54 -4.54 l3.1 0 c0.06 1.04 0.66 2.08 2.52 2.08 c1.56 0 2.36 -0.62 2.36 -1.48 c0 -1.06 -1.34 -1.34 -2.9 -1.68 c-2.18 -0.52 -4.84 -1.16 -4.84 -4.42 c0 -2.4 1.86 -4.18 5.14 -4.18 c3.34 0 5.18 1.82 5.38 4.5 l-3.12 0 c-0.06 -1.1 -0.66 -1.98 -2.34 -1.98 c-1.24 0 -2.06 0.5 -2.06 1.4 c0 1.16 1.36 1.48 2.92 1.84 c2.24 0.5 4.92 1.06 4.92 4.14 c0 2.5 -1.96 4.32 -5.54 4.32 z M79.07999999999998 20.26 c-3.46 0 -5.36 -1.72 -5.54 -4.54 l3.1 0 c0.06 1.04 0.66 2.08 2.52 2.08 c1.56 0 2.36 -0.62 2.36 -1.48 c0 -1.06 -1.34 -1.34 -2.9 -1.68 c-2.18 -0.52 -4.84 -1.16 -4.84 -4.42 c0 -2.4 1.86 -4.18 5.14 -4.18 c3.34 0 5.18 1.82 5.38 4.5 l-3.12 0 c-0.06 -1.1 -0.66 -1.98 -2.34 -1.98 c-1.24 0 -2.06 0.5 -2.06 1.4 c0 1.16 1.36 1.48 2.92 1.84 c2.24 0.5 4.92 1.06 4.92 4.14 c0 2.5 -1.96 4.32 -5.54 4.32 z M94.75999999999999 20 l0 -5.36 l-5.8 0 l0 5.36 l-3.1 0 l0 -13.7 l3.1 0 l0 5.5 l5.8 0 l0 -5.5 l3.1 0 l0 13.7 l-3.1 0 z M106.47999999999999 20.28 c-4 0 -7.26 -3.06 -7.26 -7.12 c0 -4.08 3.26 -7.14 7.26 -7.14 c4.1 0 7.26 3.06 7.26 7.12 c0 4.08 -3.16 7.14 -7.26 7.14 z M106.47999999999999 17.4 c2.32 0 4.1 -1.84 4.1 -4.26 c0 -2.38 -1.78 -4.24 -4.1 -4.24 s-4.1 1.86 -4.1 4.26 s1.78 4.24 4.1 4.24 z M120.71999999999998 16.18 l-2.52 0 l0 3.82 l-3.1 0 l0 -13.7 l5.9 0 c3.12 0 4.88 2.18 4.88 4.84 c0 2.8 -1.94 5.04 -5.16 5.04 z M120.53999999999999 9.14 l-2.34 0 l0 4.2 l2.44 0 c1.32 0 2.12 -0.88 2.12 -2.12 s-0.78 -2.08 -2.22 -2.08 z"/></g><g id="SvgjsG1603" featureKey="WvMr3I-0" transform="matrix(0.3893285664307071,0,0,0.3893285664307071,21.869677183314515,43.29474900291678)" fill="#000"><path d="M13.62 20.22 c-0.10666 0.05334 -0.21992 0.08 -0.33992 0.08 c-0.17334 0 -0.33668 -0.04666 -0.49002 -0.14 s-0.26334 -0.22668 -0.33 -0.40002 l-1.58 -3.72 l-7.26 0 l-1.58 3.72 c-0.09334 0.22666 -0.25334 0.38666 -0.48 0.48 s-0.45332 0.08668 -0.67998 -0.01998 c-0.22666 -0.09334 -0.38666 -0.25334 -0.48 -0.48 s-0.08668 -0.45332 0.01998 -0.67998 l1.8 -4.26 l4.22 -9.88 c0.06666 -0.17334 0.17332 -0.30668 0.31998 -0.40002 s0.31332 -0.14 0.49998 -0.14 c0.17334 0 0.33334 0.04666 0.48 0.14 s0.25332 0.22668 0.31998 0.40002 c1.0133 2.3734 2.02 4.73 3.02 7.07 s2.0066 4.6966 3.02 7.07 c0.09334 0.22666 0.09334 0.45332 0 0.67998 s-0.25334 0.38666 -0.48 0.48 z M7.26 7.539999999999999 l-2.88 6.72 l5.74 0 z M38.971000000000004 5.6 l-5.7 14.14 c-0.06666 0.17334 -0.17332 0.31 -0.31998 0.41 s-0.31332 0.15 -0.49998 0.15 s-0.35332 -0.05 -0.49998 -0.15 s-0.25332 -0.23666 -0.31998 -0.41 l-5.72 -14.14 c-0.04 -0.09334 -0.06 -0.20668 -0.06 -0.34002 c0 -0.24 0.08666 -0.44666 0.26 -0.62 s0.38 -0.26 0.62 -0.26 c0.18666 0 0.35666 0.05 0.51 0.15 s0.26334 0.23666 0.33 0.41 l4.88 12.1 l4.88 -12.1 c0.06666 -0.17334 0.17332 -0.31 0.31998 -0.41 s0.31332 -0.15 0.49998 -0.15 c0.25334 0 0.46668 0.08666 0.64002 0.26 s0.26 0.38 0.26 0.62 c0 0.13334 -0.02666 0.24668 -0.08 0.34002 z M64.022 20.22 c-0.10666 0.05334 -0.21992 0.08 -0.33992 0.08 c-0.17334 0 -0.33668 -0.04666 -0.49002 -0.14 s-0.26334 -0.22668 -0.33 -0.40002 l-1.58 -3.72 l-7.26 0 l-1.58 3.72 c-0.09334 0.22666 -0.25334 0.38666 -0.48 0.48 s-0.45332 0.08668 -0.67998 -0.01998 c-0.22666 -0.09334 -0.38666 -0.25334 -0.48 -0.48 s-0.08668 -0.45332 0.01998 -0.67998 l1.8 -4.26 l4.22 -9.88 c0.06666 -0.17334 0.17332 -0.30668 0.31998 -0.40002 s0.31332 -0.14 0.49998 -0.14 c0.17334 0 0.33334 0.04666 0.48 0.14 s0.25332 0.22668 0.31998 0.40002 c1.0133 2.3734 2.02 4.73 3.02 7.07 s2.0066 4.6966 3.02 7.07 c0.09334 0.22666 0.09334 0.45332 0 0.67998 s-0.25334 0.38666 -0.48 0.48 z M57.662 7.539999999999999 l-2.88 6.72 l5.74 0 z M79.893 20.3 c-0.25334 0 -0.46668 -0.08666 -0.64002 -0.26 s-0.26 -0.38 -0.26 -0.62 l0 -14.02 c0 -0.24 0.08666 -0.44666 0.26 -0.62 s0.38668 -0.26 0.64002 -0.26 c0.24 0 0.44666 0.08666 0.62 0.26 s0.26 0.38 0.26 0.62 l0 14.02 c0 0.24 -0.08666 0.44666 -0.26 0.62 s-0.38 0.26 -0.62 0.26 z M102.744 20.3 l-5.34 0 c-0.24 0 -0.44666 -0.08666 -0.62 -0.26 s-0.26 -0.38 -0.26 -0.62 l0 -14.02 c0 -0.25334 0.08666 -0.46334 0.26 -0.63 s0.38 -0.25 0.62 -0.25 c0.25334 0 0.46334 0.08334 0.63 0.25 s0.25 0.37666 0.25 0.63 l0 13.14 l4.46 0 c0.25334 0 0.46668 0.08666 0.64002 0.26 s0.26 0.38 0.26 0.62 s-0.08666 0.44666 -0.26 0.62 s-0.38668 0.26 -0.64002 0.26 z M129.595 20.22 c-0.10666 0.05334 -0.21992 0.08 -0.33992 0.08 c-0.17334 0 -0.33668 -0.04666 -0.49002 -0.14 s-0.26334 -0.22668 -0.33 -0.40002 l-1.58 -3.72 l-7.26 0 l-1.58 3.72 c-0.09334 0.22666 -0.25334 0.38666 -0.48 0.48 s-0.45332 0.08668 -0.67998 -0.01998 c-0.22666 -0.09334 -0.38666 -0.25334 -0.48 -0.48 s-0.08668 -0.45332 0.01998 -0.67998 l1.8 -4.26 l4.22 -9.88 c0.06666 -0.17334 0.17332 -0.30668 0.31998 -0.40002 s0.31332 -0.14 0.49998 -0.14 c0.17334 0 0.33334 0.04666 0.48 0.14 s0.25332 0.22668 0.31998 0.40002 c1.0133 2.3734 2.02 4.73 3.02 7.07 s2.0066 4.6966 3.02 7.07 c0.09334 0.22666 0.09334 0.45332 0 0.67998 s-0.25334 0.38666 -0.48 0.48 z M123.23500000000001 7.539999999999999 l-2.88 6.72 l5.74 0 z M149.726 20.3 l-4.26 0.000019531 c-0.25334 0 -0.46668 -0.08666 -0.64002 -0.26 s-0.26 -0.38 -0.26 -0.62 l0 -14.02 c0 -0.24 0.08666 -0.44666 0.26 -0.62 s0.38668 -0.26 0.64002 -0.26 l2.92 0 c0.50666 0 0.98666 0.09666 1.44 0.29 s0.84668 0.45668 1.18 0.79002 s0.59668 0.72668 0.79002 1.18 s0.29 0.93334 0.29 1.44 c0 0.8 -0.24 1.5333 -0.72 2.2 c0.52 0.17334 0.99334 0.41 1.42 0.71 s0.79332 0.65666 1.1 1.07 s0.54666 0.87 0.72 1.37 s0.26 1.03 0.26 1.59 c0 0.70666 -0.13334 1.3733 -0.4 2 s-0.63332 1.1733 -1.1 1.64 s-1.0133 0.83332 -1.64 1.1 s-1.2933 0.4 -2 0.4 z M148.386 6.279999999999999 l-2.04 0 l0 3.86 l2.24 0 c0.21334 0 0.42334 -0.05666 0.63 -0.17 s0.39 -0.26 0.55 -0.44 s0.29 -0.38334 0.39 -0.61 s0.15 -0.46 0.15 -0.7 c0 -0.26666 -0.05 -0.51666 -0.15 -0.75 s-0.23666 -0.44 -0.41 -0.62 s-0.37668 -0.32 -0.61002 -0.42 s-0.48334 -0.15 -0.75 -0.15 z M149.726 11.92 l-3.38 -0.000039062 l0 6.6 l3.38 0 c0.46666 0 0.90332 -0.08666 1.31 -0.26 s0.76332 -0.41334 1.07 -0.72 s0.54666 -0.66332 0.72 -1.07 s0.26 -0.84332 0.26 -1.31 s-0.09 -0.9 -0.27 -1.3 s-0.42 -0.74334 -0.72 -1.03 s-0.65666 -0.51 -1.07 -0.67 s-0.84668 -0.24 -1.3 -0.24 z M170.637 20.3 c-0.25334 0 -0.46668 -0.08666 -0.64002 -0.26 s-0.26 -0.38 -0.26 -0.62 l0 -14.02 c0 -0.24 0.08666 -0.44666 0.26 -0.62 s0.38668 -0.26 0.64002 -0.26 c0.24 0 0.44666 0.08666 0.62 0.26 s0.26 0.38 0.26 0.62 l0 14.02 c0 0.24 -0.08666 0.44666 -0.26 0.62 s-0.38 0.26 -0.62 0.26 z M193.488 20.3 l-5.34 0 c-0.24 0 -0.44666 -0.08666 -0.62 -0.26 s-0.26 -0.38 -0.26 -0.62 l0 -14.02 c0 -0.25334 0.08666 -0.46334 0.26 -0.63 s0.38 -0.25 0.62 -0.25 c0.25334 0 0.46334 0.08334 0.63 0.25 s0.25 0.37666 0.25 0.63 l0 13.14 l4.46 0 c0.25334 0 0.46668 0.08666 0.64002 0.26 s0.26 0.38 0.26 0.62 s-0.08666 0.44666 -0.26 0.62 s-0.38668 0.26 -0.64002 0.26 z M209.279 20.3 c-0.25334 0 -0.46668 -0.08666 -0.64002 -0.26 s-0.26 -0.38 -0.26 -0.62 l0 -14.02 c0 -0.24 0.08666 -0.44666 0.26 -0.62 s0.38668 -0.26 0.64002 -0.26 c0.24 0 0.44666 0.08666 0.62 0.26 s0.26 0.38 0.26 0.62 l0 14.02 c0 0.24 -0.08666 0.44666 -0.26 0.62 s-0.38 0.26 -0.62 0.26 z M233.51 6.279999999999999 l-3.24 0 l0 13.14 c0 0.24 -0.08666 0.44666 -0.26 0.62 s-0.38 0.26 -0.62 0.26 c-0.25334 0 -0.46668 -0.08666 -0.64002 -0.26 s-0.26 -0.38 -0.26 -0.62 l0 -13.14 l-3.24 0 c-0.24 0 -0.44666 -0.08334 -0.62 -0.25 s-0.26 -0.37666 -0.26 -0.63 c0 -0.24 0.08666 -0.44666 0.26 -0.62 s0.38 -0.26 0.62 -0.26 l8.26 0 c0.24 0 0.44666 0.08666 0.62 0.26 s0.26 0.38 0.26 0.62 c0 0.25334 -0.08666 0.46334 -0.26 0.63 s-0.38 0.25 -0.62 0.25 z M258.021 5.84 l-4.54 8.12 l0 5.46 c0 0.24 -0.08666 0.44666 -0.26 0.62 s-0.38 0.26 -0.62 0.26 s-0.44666 -0.08666 -0.62 -0.26 s-0.26 -0.38 -0.26 -0.62 l0 -5.46 l-4.54 -8.12 c-0.08 -0.13334 -0.12 -0.28 -0.12 -0.44 c0 -0.24 0.08666 -0.44666 0.26 -0.62 s0.38 -0.26 0.62 -0.26 c0.16 0 0.31 0.04 0.45 0.12 s0.25 0.18666 0.33 0.32 l3.88 6.94 l3.88 -6.94 c0.08 -0.13334 0.19 -0.24 0.33 -0.32 s0.29 -0.12 0.45 -0.12 c0.24 0 0.44666 0.08666 0.62 0.26 s0.26 0.38 0.26 0.62 c0 0.16 -0.04 0.30666 -0.12 0.44 z M306.403 20.3 c-0.24 0 -0.4467 -0.08666 -0.62004 -0.26 l-1.54 -1.52 c-0.68 0.56 -1.4433 0.99666 -2.29 1.31 s-1.7433 0.47 -2.69 0.47 c-1.0933 0 -2.12 -0.20666 -3.08 -0.62 s-1.7967 -0.97668 -2.51 -1.69 s-1.2767 -1.55 -1.69 -2.51 s-0.62 -1.9867 -0.62 -3.08 c0 -1.08 0.20666 -2.1 0.62 -3.06 s0.97668 -1.7967 1.69 -2.51 s1.55 -1.2767 2.51 -1.69 s1.9867 -0.62 3.08 -0.62 c1.08 0 2.1 0.20666 3.06 0.62 s1.7967 0.97668 2.51 1.69 s1.2767 1.55 1.69 2.51 s0.62 1.98 0.62 3.06 c0 0.92 -0.14666 1.7867 -0.44 2.6 s-0.7 1.56 -1.22 2.24 l1.54 1.54 c0.17334 0.17334 0.26 0.38668 0.26 0.64002 c0 0.24 -0.08666 0.44666 -0.26 0.62 s-0.38 0.26 -0.62 0.26 z M299.26300000000003 6.279999999999999 c-0.84 0 -1.6334 0.16 -2.38 0.48 s-1.4 0.75666 -1.96 1.31 s-1 1.2033 -1.32 1.95 s-0.48 1.54 -0.48 2.38 s0.16 1.6333 0.48 2.38 s0.76 1.4 1.32 1.96 s1.2133 1 1.96 1.32 s1.54 0.48 2.38 0.48 c0.70666 0 1.3767 -0.11334 2.01 -0.34 s1.21 -0.54 1.73 -0.94 l-2.7 -2.7 c-0.17334 -0.17334 -0.26 -0.38 -0.26 -0.62 s0.08666 -0.44666 0.26 -0.62 s0.38 -0.26 0.62 -0.26 c0.25334 0 0.46668 0.08666 0.64002 0.26 l2.66 2.66 c0.37334 -0.50666 0.66 -1.06 0.86 -1.66 s0.3 -1.24 0.3 -1.92 c0 -0.84 -0.16 -1.6333 -0.48 -2.38 s-0.75666 -1.3967 -1.31 -1.95 s-1.2033 -0.99 -1.95 -1.31 s-1.54 -0.48 -2.38 -0.48 z M328.67400000000004 20.3 c-0.84 0 -1.6266 -0.16004 -2.36 -0.48004 s-1.3767 -0.75334 -1.93 -1.3 s-0.99 -1.19 -1.31 -1.93 s-0.48 -1.53 -0.48 -2.37 l0 -8.82 c0 -0.24 0.08666 -0.44666 0.26 -0.62 s0.38668 -0.26 0.64002 -0.26 c0.24 0 0.44666 0.08666 0.62 0.26 s0.26 0.38 0.26 0.62 l0 8.82 c0 0.6 0.11334 1.16 0.34 1.68 s0.53332 0.97334 0.91998 1.36 s0.84332 0.69332 1.37 0.91998 s1.0833 0.34 1.67 0.34 c0.6 0 1.16 -0.11334 1.68 -0.34 s0.97666 -0.53332 1.37 -0.91998 s0.70334 -0.84332 0.93 -1.37 s0.34 -1.0833 0.34 -1.67 l0 -8.82 c0 -0.24 0.08666 -0.44666 0.26 -0.62 s0.38 -0.26 0.62 -0.26 c0.25334 0 0.46668 0.08666 0.64002 0.26 s0.26 0.38 0.26 0.62 l0 8.82 c0 0.84 -0.16 1.63 -0.48 2.37 s-0.75666 1.3833 -1.31 1.93 s-1.2 0.98 -1.94 1.3 s-1.53 0.48 -2.37 0.48 z M362.485 20.22 c-0.10666 0.05334 -0.21992 0.08 -0.33992 0.08 c-0.17334 0 -0.33668 -0.04666 -0.49002 -0.14 s-0.26334 -0.22668 -0.33 -0.40002 l-1.58 -3.72 l-7.26 0 l-1.58 3.72 c-0.09334 0.22666 -0.25334 0.38666 -0.48 0.48 s-0.45332 0.08668 -0.67998 -0.01998 c-0.22666 -0.09334 -0.38666 -0.25334 -0.48 -0.48 s-0.08668 -0.45332 0.01998 -0.67998 l1.8 -4.26 l4.22 -9.88 c0.06666 -0.17334 0.17332 -0.30668 0.31998 -0.40002 s0.31332 -0.14 0.49998 -0.14 c0.17334 0 0.33334 0.04666 0.48 0.14 s0.25332 0.22668 0.31998 0.40002 c1.0133 2.3734 2.02 4.73 3.02 7.07 s2.0066 4.6966 3.02 7.07 c0.09334 0.22666 0.09334 0.45332 0 0.67998 s-0.25334 0.38666 -0.48 0.48 z M356.125 7.539999999999999 l-2.88 6.72 l5.74 0 z M383.676 20.3 l-5.34 0 c-0.24 0 -0.44666 -0.08666 -0.62 -0.26 s-0.26 -0.38 -0.26 -0.62 l0 -14.02 c0 -0.25334 0.08666 -0.46334 0.26 -0.63 s0.38 -0.25 0.62 -0.25 c0.25334 0 0.46334 0.08334 0.63 0.25 s0.25 0.37666 0.25 0.63 l0 13.14 l4.46 0 c0.25334 0 0.46668 0.08666 0.64002 0.26 s0.26 0.38 0.26 0.62 s-0.08666 0.44666 -0.26 0.62 s-0.38668 0.26 -0.64002 0.26 z M399.467 20.3 c-0.25334 0 -0.46668 -0.08666 -0.64002 -0.26 s-0.26 -0.38 -0.26 -0.62 l0 -14.02 c0 -0.24 0.08666 -0.44666 0.26 -0.62 s0.38668 -0.26 0.64002 -0.26 c0.24 0 0.44666 0.08666 0.62 0.26 s0.26 0.38 0.26 0.62 l0 14.02 c0 0.24 -0.08666 0.44666 -0.26 0.62 s-0.38 0.26 -0.62 0.26 z M423.698 6.279999999999999 l-3.24 0 l0 13.14 c0 0.24 -0.08666 0.44666 -0.26 0.62 s-0.38 0.26 -0.62 0.26 c-0.25334 0 -0.46668 -0.08666 -0.64002 -0.26 s-0.26 -0.38 -0.26 -0.62 l0 -13.14 l-3.24 0 c-0.24 0 -0.44666 -0.08334 -0.62 -0.25 s-0.26 -0.37666 -0.26 -0.63 c0 -0.24 0.08666 -0.44666 0.26 -0.62 s0.38 -0.26 0.62 -0.26 l8.26 0 c0.24 0 0.44666 0.08666 0.62 0.26 s0.26 0.38 0.26 0.62 c0 0.25334 -0.08666 0.46334 -0.26 0.63 s-0.38 0.25 -0.62 0.25 z M448.209 5.84 l-4.54 8.12 l0 5.46 c0 0.24 -0.08666 0.44666 -0.26 0.62 s-0.38 0.26 -0.62 0.26 s-0.44666 -0.08666 -0.62 -0.26 s-0.26 -0.38 -0.26 -0.62 l0 -5.46 l-4.54 -8.12 c-0.08 -0.13334 -0.12 -0.28 -0.12 -0.44 c0 -0.24 0.08666 -0.44666 0.26 -0.62 s0.38 -0.26 0.62 -0.26 c0.16 0 0.31 0.04 0.45 0.12 s0.25 0.18666 0.33 0.32 l3.88 6.94 l3.88 -6.94 c0.08 -0.13334 0.19 -0.24 0.33 -0.32 s0.29 -0.12 0.45 -0.12 c0.24 0 0.44666 0.08666 0.62 0.26 s0.26 0.38 0.26 0.62 c0 0.16 -0.04 0.30666 -0.12 0.44 z M489.531 20.3 c-1.1067 0 -2.1434 -0.21006 -3.11 -0.63006 s-1.81 -0.99 -2.53 -1.71 s-1.29 -1.5633 -1.71 -2.53 s-0.63 -2.0034 -0.63 -3.11 c0 -1.0933 0.21 -2.1166 0.63 -3.07 s0.99 -1.78 1.71 -2.48 s1.5633 -1.25 2.53 -1.65 s2.0034 -0.6 3.11 -0.6 c1.0667 0 2.08 0.19666 3.04 0.59 s1.82 0.97 2.58 1.73 c0.18666 0.18666 0.28 0.4 0.28 0.64 s-0.09334 0.44666 -0.28 0.62 c-0.17334 0.17334 -0.38 0.26 -0.62 0.26 s-0.44666 -0.08666 -0.62 -0.26 c-0.6 -0.6 -1.2733 -1.0533 -2.02 -1.36 s-1.5333 -0.46 -2.36 -0.46 c-0.86666 0 -1.6767 0.15666 -2.43 0.47 s-1.41 0.74 -1.97 1.28 s-1 1.1767 -1.32 1.91 s-0.48 1.5267 -0.48 2.38 s0.16334 1.6567 0.49 2.41 s0.77 1.41 1.33 1.97 s1.2167 1.0033 1.97 1.33 s1.5567 0.49 2.41 0.49 c0.82666 0 1.6133 -0.15334 2.36 -0.46 s1.42 -0.75332 2.02 -1.34 c0.17334 -0.18666 0.38 -0.28 0.62 -0.28 s0.44666 0.09334 0.62 0.28 c0.18666 0.17334 0.28 0.38 0.28 0.62 s-0.09334 0.44666 -0.28 0.62 c-0.76 0.76 -1.62 1.34 -2.58 1.74 s-1.9733 0.6 -3.04 0.6 z M518.202 20.3 c-1.0933 0 -2.12 -0.20666 -3.08 -0.62 s-1.7967 -0.97668 -2.51 -1.69 s-1.2767 -1.55 -1.69 -2.51 s-0.62 -1.9867 -0.62 -3.08 c0 -1.08 0.20666 -2.1 0.62 -3.06 s0.97668 -1.7967 1.69 -2.51 s1.55 -1.2767 2.51 -1.69 s1.9867 -0.62 3.08 -0.62 c1.08 0 2.1 0.20666 3.06 0.62 s1.7967 0.97668 2.51 1.69 s1.2767 1.55 1.69 2.51 s0.62 1.98 0.62 3.06 c0 1.0933 -0.20666 2.12 -0.62 3.08 s-0.97668 1.7967 -1.69 2.51 s-1.55 1.2767 -2.51 1.69 s-1.98 0.62 -3.06 0.62 z M518.202 6.279999999999999 c-0.84 0 -1.6333 0.16 -2.38 0.48 s-1.4 0.75666 -1.96 1.31 s-1 1.2033 -1.32 1.95 s-0.48 1.54 -0.48 2.38 s0.16 1.6333 0.48 2.38 s0.76 1.4 1.32 1.96 s1.2133 1 1.96 1.32 s1.54 0.48 2.38 0.48 s1.6333 -0.16 2.38 -0.48 s1.3967 -0.76 1.95 -1.32 s0.99 -1.2133 1.31 -1.96 s0.48 -1.54 0.48 -2.38 s-0.16 -1.6333 -0.48 -2.38 s-0.75666 -1.3967 -1.31 -1.95 s-1.2033 -0.99 -1.95 -1.31 s-1.54 -0.48 -2.38 -0.48 z M556.133 20.3 c-0.24 0 -0.44666 -0.08666 -0.62 -0.26 s-0.26 -0.38 -0.26 -0.62 l0 -10.42 l-5.24 10.8 c-0.08 0.14666 -0.19334 0.26666 -0.34 0.36 s-0.3 0.14 -0.46 0.14 s-0.31334 -0.04666 -0.46 -0.14 s-0.26 -0.21334 -0.34 -0.36 l-5.24 -10.8 l0 10.42 c0 0.24 -0.08334 0.44666 -0.25 0.62 s-0.37666 0.26 -0.63 0.26 c-0.24 0 -0.44666 -0.08666 -0.62 -0.26 s-0.26 -0.38 -0.26 -0.62 l0 -14.02 c0 -0.24 0.08666 -0.44666 0.26 -0.62 s0.38 -0.26 0.62 -0.26 c0.36 0 0.62666 0.16 0.8 0.48 l6.12 12.42 l6.12 -12.42 c0.17334 -0.32 0.44 -0.48 0.8 -0.48 c0.24 0 0.44666 0.08666 0.62 0.26 s0.26 0.38 0.26 0.62 l0 14.02 c0 0.24 -0.08666 0.44666 -0.26 0.62 s-0.38 0.26 -0.62 0.26 z M580.5440000000001 6.279999999999999 l-6 0 l0 5.18 l5.06 0 c0.24 0 0.44666 0.08666 0.62 0.26 s0.26 0.38 0.26 0.62 c0 0.25334 -0.08666 0.46334 -0.26 0.63 s-0.38 0.25 -0.62 0.25 l-5.06 0 l0 6.2 c0 0.24 -0.08666 0.44666 -0.26 0.62 s-0.38 0.26 -0.62 0.26 c-0.25334 0 -0.46668 -0.08666 -0.64002 -0.26 s-0.26 -0.38 -0.26 -0.62 l0 -14.02 c0 -0.24 0.08666 -0.44666 0.26 -0.62 s0.38668 -0.26 0.64002 -0.26 l6.88 0 c0.25334 0 0.46668 0.08666 0.64002 0.26 s0.26 0.38 0.26 0.62 c0 0.25334 -0.08666 0.46334 -0.26 0.63 s-0.38668 0.25 -0.64002 0.25 z M602.8950000000001 20.3 c-1.0933 0 -2.12 -0.20666 -3.08 -0.62 s-1.7967 -0.97668 -2.51 -1.69 s-1.2767 -1.55 -1.69 -2.51 s-0.62 -1.9867 -0.62 -3.08 c0 -1.08 0.20666 -2.1 0.62 -3.06 s0.97668 -1.7967 1.69 -2.51 s1.55 -1.2767 2.51 -1.69 s1.9867 -0.62 3.08 -0.62 c1.08 0 2.1 0.20666 3.06 0.62 s1.7967 0.97668 2.51 1.69 s1.2767 1.55 1.69 2.51 s0.62 1.98 0.62 3.06 c0 1.0933 -0.20666 2.12 -0.62 3.08 s-0.97668 1.7967 -1.69 2.51 s-1.55 1.2767 -2.51 1.69 s-1.98 0.62 -3.06 0.62 z M602.8950000000001 6.279999999999999 c-0.84 0 -1.6333 0.16 -2.38 0.48 s-1.4 0.75666 -1.96 1.31 s-1 1.2033 -1.32 1.95 s-0.48 1.54 -0.48 2.38 s0.16 1.6333 0.48 2.38 s0.76 1.4 1.32 1.96 s1.2133 1 1.96 1.32 s1.54 0.48 2.38 0.48 s1.6333 -0.16 2.38 -0.48 s1.3967 -0.76 1.95 -1.32 s0.99 -1.2133 1.31 -1.96 s0.48 -1.54 0.48 -2.38 s-0.16 -1.6333 -0.48 -2.38 s-0.75666 -1.3967 -1.31 -1.95 s-1.2033 -0.99 -1.95 -1.31 s-1.54 -0.48 -2.38 -0.48 z M630.5260000000002 13.36 l-0.24 -0.000039062 l0.26 -0.46 l3.62 6.06 c0.08 0.14666 0.12 0.3 0.12 0.46 c0 0.24 -0.08666 0.44666 -0.26 0.62 s-0.38 0.26 -0.62 0.26 c-0.16 0 -0.31 -0.04 -0.45 -0.12 s-0.25 -0.18666 -0.33 -0.32 l-3.88 -6.5 l-0.86 0 l0 6.06 c0 0.24 -0.08666 0.44666 -0.26 0.62 s-0.38 0.26 -0.62 0.26 c-0.25334 0 -0.46668 -0.08666 -0.64002 -0.26 s-0.26 -0.38 -0.26 -0.62 l0 -14.02 c0 -0.24 0.08666 -0.44666 0.26 -0.62 s0.38668 -0.26 0.64002 -0.26 l3.52 0 c0.61334 0 1.19 0.11666 1.73 0.35 s1.01 0.55 1.41 0.95 s0.71666 0.86666 0.95 1.4 s0.35 1.1067 0.35 1.72 s-0.11666 1.1867 -0.35 1.72 s-0.55 1 -0.95 1.4 s-0.87 0.71666 -1.41 0.95 s-1.1167 0.35 -1.73 0.35 z M630.5260000000002 6.279999999999999 l-2.64 0 l0 5.3 l2.64 0 c0.36 0 0.70334 -0.07 1.03 -0.21 s0.61 -0.33 0.85 -0.57 s0.43 -0.52 0.57 -0.84 s0.21 -0.66 0.21 -1.02 s-0.07 -0.70334 -0.21 -1.03 s-0.33 -0.61 -0.57 -0.85 s-0.52334 -0.43 -0.85 -0.57 s-0.67 -0.21 -1.03 -0.21 z M656.9970000000002 6.279999999999999 l-3.24 0 l0 13.14 c0 0.24 -0.08666 0.44666 -0.26 0.62 s-0.38 0.26 -0.62 0.26 c-0.25334 0 -0.46668 -0.08666 -0.64002 -0.26 s-0.26 -0.38 -0.26 -0.62 l0 -13.14 l-3.24 0 c-0.24 0 -0.44666 -0.08334 -0.62 -0.25 s-0.26 -0.37666 -0.26 -0.63 c0 -0.24 0.08666 -0.44666 0.26 -0.62 s0.38 -0.26 0.62 -0.26 l8.26 0 c0.24 0 0.44666 0.08666 0.62 0.26 s0.26 0.38 0.26 0.62 c0 0.25334 -0.08666 0.46334 -0.26 0.63 s-0.38 0.25 -0.62 0.25 z"/></g>
			</g>
		</svg>
	