<svg width="24" height="24" viewBox="0 0 24 24" fill="none" xmlns="http://www.w3.org/2000/svg">
<path d="M15.7549 14.2559H14.9649L14.6849 13.9859C15.6649 12.8459 16.2549 11.3659 16.2549 9.75586C16.2549 6.16586 13.3449 3.25586 9.75488 3.25586C6.16488 3.25586 3.25488 6.16586 3.25488 9.75586C3.25488 13.3459 6.16488 16.2559 9.75488 16.2559C11.3649 16.2559 12.8449 15.6659 13.9849 14.6859L14.2549 14.9659V15.7559L19.2549 20.7459L20.7449 19.2559L15.7549 14.2559ZM9.75488 14.2559C7.26488 14.2559 5.25488 12.2459 5.25488 9.75586C5.25488 7.26586 7.26488 5.25586 9.75488 5.25586C12.2449 5.25586 14.2549 7.26586 14.2549 9.75586C14.2549 12.2459 12.2449 14.2559 9.75488 14.2559Z" fill="#0C0C0C"/>
</svg>
