<svg width="11" height="10" viewBox="0 0 11 10" fill="none" xmlns="http://www.w3.org/2000/svg">
<rect width="11" height="10" fill="#1F231E"/>
<g id="Desktop/Landing/01" clip-path="url(#clip0_630_6864)">
<rect width="1440" height="5626" transform="translate(-266 -61)" fill="white"/>
<g id="HEADER">
<rect width="1440" height="110" transform="translate(-267 -62)" fill="white"/>
<g id="Logo">
<g id="Frame 26086802">
<g id="Subtract">
<mask id="path-1-inside-1_630_6864" fill="white">
<path fill-rule="evenodd" clip-rule="evenodd" d="M5.75 10C8.51142 10 10.75 7.76142 10.75 5C10.75 2.23858 8.51142 0 5.75 0C2.98858 0 0.75 2.23858 0.75 5C0.75 7.21562 2.19111 9.09466 4.18712 9.75089C4.20859 9.67078 4.23188 9.59176 4.25707 9.51387C3.67558 8.83795 3.67505 8.18061 3.67505 7.84982L3.67505 7.84947C3.67755 6.95619 3.94644 6.13606 4.63142 5.54186C5.31334 4.95031 6.38818 4.59982 7.96672 4.59982H9.36047C9.4295 4.59982 9.48547 4.65579 9.48547 4.72482V5.41927V5.42644L9.48526 5.42643C9.39743 6.95679 8.97624 8.03252 8.28368 8.72535C7.58991 9.41939 6.64219 9.71093 5.54102 9.71093H4.49449C4.48251 9.71093 4.47071 9.70921 4.45941 9.70591C4.44803 9.74462 4.4371 9.78365 4.42663 9.82299C4.84814 9.93839 5.29187 10 5.75 10ZM4.95057 8.63531C4.78251 8.88741 4.6472 9.16113 4.5413 9.45506L4.54694 9.46093H5.54102C6.59888 9.46093 7.47407 9.18165 8.10687 8.5486C8.74037 7.91485 9.14924 6.90835 9.23547 5.41567V4.84982H7.96672C6.42025 4.84982 5.41419 5.19378 4.79524 5.7307C4.17939 6.26494 3.92744 7.00725 3.92505 7.85V7.85078C3.92505 8.1441 3.92505 8.67374 4.35583 9.23885C4.45986 8.97662 4.58785 8.7287 4.74256 8.49663C5.14757 7.88912 5.73117 7.39704 6.53191 7.04115C6.595 7.01311 6.66887 7.04153 6.69691 7.10461C6.72494 7.1677 6.69653 7.24157 6.63345 7.2696C5.87169 7.60816 5.32682 8.07094 4.95057 8.63531Z"/>
</mask>
<path fill-rule="evenodd" clip-rule="evenodd" d="M5.75 10C8.51142 10 10.75 7.76142 10.75 5C10.75 2.23858 8.51142 0 5.75 0C2.98858 0 0.75 2.23858 0.75 5C0.75 7.21562 2.19111 9.09466 4.18712 9.75089C4.20859 9.67078 4.23188 9.59176 4.25707 9.51387C3.67558 8.83795 3.67505 8.18061 3.67505 7.84982L3.67505 7.84947C3.67755 6.95619 3.94644 6.13606 4.63142 5.54186C5.31334 4.95031 6.38818 4.59982 7.96672 4.59982H9.36047C9.4295 4.59982 9.48547 4.65579 9.48547 4.72482V5.41927V5.42644L9.48526 5.42643C9.39743 6.95679 8.97624 8.03252 8.28368 8.72535C7.58991 9.41939 6.64219 9.71093 5.54102 9.71093H4.49449C4.48251 9.71093 4.47071 9.70921 4.45941 9.70591C4.44803 9.74462 4.4371 9.78365 4.42663 9.82299C4.84814 9.93839 5.29187 10 5.75 10ZM4.95057 8.63531C4.78251 8.88741 4.6472 9.16113 4.5413 9.45506L4.54694 9.46093H5.54102C6.59888 9.46093 7.47407 9.18165 8.10687 8.5486C8.74037 7.91485 9.14924 6.90835 9.23547 5.41567V4.84982H7.96672C6.42025 4.84982 5.41419 5.19378 4.79524 5.7307C4.17939 6.26494 3.92744 7.00725 3.92505 7.85V7.85078C3.92505 8.1441 3.92505 8.67374 4.35583 9.23885C4.45986 8.97662 4.58785 8.7287 4.74256 8.49663C5.14757 7.88912 5.73117 7.39704 6.53191 7.04115C6.595 7.01311 6.66887 7.04153 6.69691 7.10461C6.72494 7.1677 6.69653 7.24157 6.63345 7.2696C5.87169 7.60816 5.32682 8.07094 4.95057 8.63531Z" fill="#748C70"/>
<path d="M4.18712 9.75089L4.10904 9.98838L4.36018 10.071L4.42861 9.8156L4.18712 9.75089ZM4.25707 9.51387L4.49494 9.59078L4.53812 9.45723L4.44659 9.35083L4.25707 9.51387ZM3.67505 7.84982L3.42505 7.84948V7.84982H3.67505ZM3.67505 7.84947L3.42505 7.84877L3.42505 7.84913L3.67505 7.84947ZM4.63142 5.54186L4.79524 5.7307L4.63142 5.54186ZM9.48547 5.42644L9.4716 5.67606L9.73547 5.69072V5.42644H9.48547ZM9.48526 5.42643L9.49913 5.17681L9.24997 5.16297L9.23567 5.41211L9.48526 5.42643ZM8.28368 8.72535L8.46049 8.90209L8.28368 8.72535ZM4.45941 9.70591L4.52957 9.46596L4.29 9.39592L4.21957 9.63537L4.45941 9.70591ZM4.42663 9.82299L4.18505 9.75867L4.12117 9.99857L4.36062 10.0641L4.42663 9.82299ZM4.5413 9.45506L4.3061 9.37033L4.25348 9.51637L4.36104 9.62829L4.5413 9.45506ZM4.95057 8.63531L4.74256 8.49663L4.95057 8.63531ZM4.54694 9.46093L4.36668 9.63416L4.44046 9.71093H4.54694V9.46093ZM8.10687 8.5486L8.28368 8.72535H8.28368L8.10687 8.5486ZM9.23547 5.41567L9.48505 5.43009L9.48547 5.42289V5.41567H9.23547ZM9.23547 4.84982H9.48547V4.59982H9.23547V4.84982ZM4.79524 5.7307L4.63142 5.54186H4.63142L4.79524 5.7307ZM3.92505 7.85L3.67505 7.84929V7.85H3.92505ZM3.92505 7.85078L4.17505 7.85078V7.85078H3.92505ZM4.35583 9.23885L4.157 9.39041L4.42512 9.74214L4.58821 9.33104L4.35583 9.23885ZM4.74256 8.49663L4.53455 8.35796H4.53455L4.74256 8.49663ZM6.53191 7.04115L6.63345 7.2696H6.63345L6.53191 7.04115ZM6.63345 7.2696L6.53191 7.04115L6.63345 7.2696ZM10.5 5C10.5 7.62335 8.37335 9.75 5.75 9.75V10.25C8.64949 10.25 11 7.89949 11 5H10.5ZM5.75 0.25C8.37335 0.25 10.5 2.37665 10.5 5H11C11 2.1005 8.64949 -0.25 5.75 -0.25V0.25ZM1 5C1 2.37665 3.12665 0.25 5.75 0.25V-0.25C2.8505 -0.25 0.5 2.1005 0.5 5H1ZM4.26521 9.5134C2.36873 8.88989 1 7.10446 1 5H0.5C0.5 7.32679 2.0135 9.29943 4.10904 9.98838L4.26521 9.5134ZM4.42861 9.8156C4.44901 9.73945 4.4711 9.6645 4.49494 9.59078L4.01919 9.43696C3.99266 9.51901 3.96817 9.6021 3.94564 9.68618L4.42861 9.8156ZM4.44659 9.35083C3.92569 8.74534 3.92505 8.1653 3.92505 7.84982H3.42505C3.42505 8.19593 3.42547 8.93056 4.06755 9.67691L4.44659 9.35083ZM3.92505 7.85016L3.92505 7.84981L3.42505 7.84913L3.42505 7.84948L3.92505 7.85016ZM3.92505 7.85017C3.92741 7.00729 4.17938 6.26495 4.79524 5.7307L4.4676 5.35301C3.71351 6.00717 3.42769 6.90509 3.42505 7.84877L3.92505 7.85017ZM4.79524 5.7307C5.41418 5.19379 6.42023 4.84982 7.96672 4.84982V4.34982C6.35614 4.34982 5.21249 4.70684 4.4676 5.35301L4.79524 5.7307ZM7.96672 4.84982H9.36047V4.34982H7.96672V4.84982ZM9.36047 4.84982C9.29143 4.84982 9.23547 4.79386 9.23547 4.72482H9.73547C9.73547 4.51772 9.56757 4.34982 9.36047 4.34982V4.84982ZM9.23547 4.72482V5.41927H9.73547V4.72482H9.23547ZM9.23547 5.41927V5.42644H9.73547V5.41927H9.23547ZM9.49933 5.17683L9.49913 5.17681L9.47139 5.67604L9.4716 5.67606L9.49933 5.17683ZM9.23567 5.41211C9.14989 6.90677 8.74086 7.91436 8.10687 8.5486L8.46049 8.90209C9.21161 8.15068 9.64497 7.0068 9.73485 5.44075L9.23567 5.41211ZM8.10687 8.5486C7.47409 9.18163 6.59892 9.46093 5.54102 9.46093V9.96093C6.68546 9.96093 7.70573 9.65715 8.46049 8.90209L8.10687 8.5486ZM5.54102 9.46093H4.49449V9.96093H5.54102V9.46093ZM4.49449 9.46093C4.50647 9.46093 4.51828 9.46266 4.52957 9.46596L4.38926 9.94587C4.42314 9.95577 4.45856 9.96093 4.49449 9.96093V9.46093ZM4.21957 9.63537C4.20756 9.6762 4.19606 9.7173 4.18505 9.75867L4.66821 9.88732C4.67815 9.85 4.68849 9.81304 4.69925 9.77645L4.21957 9.63537ZM5.75 9.75C5.31438 9.75 4.89284 9.69143 4.49264 9.58187L4.36062 10.0641C4.80344 10.1853 5.26937 10.25 5.75 10.25V9.75ZM4.7765 9.5398C4.87611 9.26333 5.00261 9.00795 5.15859 8.77398L4.74256 8.49663C4.5624 8.76687 4.41828 9.05894 4.3061 9.37033L4.7765 9.5398ZM4.72719 9.28771L4.72155 9.28184L4.36104 9.62829L4.36668 9.63416L4.72719 9.28771ZM5.54102 9.21093H4.54694V9.71093H5.54102V9.21093ZM7.93006 8.37186C7.35821 8.94393 6.55552 9.21093 5.54102 9.21093V9.71093C6.64223 9.71093 7.58994 9.41936 8.28368 8.72535L7.93006 8.37186ZM8.98588 5.40126C8.90172 6.85818 8.50507 7.79663 7.93006 8.37186L8.28368 8.72535C8.97567 8.03308 9.39676 6.95852 9.48505 5.43009L8.98588 5.40126ZM8.98547 4.84982V5.41567H9.48547V4.84982H8.98547ZM7.96672 5.09982H9.23547V4.59982H7.96672V5.09982ZM4.95906 5.91955C5.51506 5.43723 6.45234 5.09982 7.96672 5.09982V4.59982C6.38816 4.59982 5.31332 4.95032 4.63142 5.54186L4.95906 5.91955ZM4.17505 7.85071C4.1773 7.05848 4.41225 6.3939 4.95906 5.91955L4.63142 5.54186C3.94653 6.13598 3.67759 6.95601 3.67505 7.84929L4.17505 7.85071ZM4.17505 7.85078V7.85H3.67505V7.85078H4.17505ZM4.55465 9.08729C4.1759 8.59043 4.17505 8.13181 4.17505 7.85078L3.67505 7.85078C3.67505 8.15639 3.6742 8.75704 4.157 9.39041L4.55465 9.08729ZM4.53455 8.35796C4.36948 8.60556 4.23351 8.8692 4.12344 9.14666L4.58821 9.33104C4.6862 9.08403 4.80622 8.85184 4.95057 8.63531L4.53455 8.35796ZM6.43038 6.8127C5.59065 7.18591 4.96832 7.7073 4.53455 8.35796L4.95057 8.63531C5.32682 8.07094 5.87169 7.60817 6.63345 7.2696L6.43038 6.8127ZM6.92536 7.00308C6.84125 6.81382 6.61964 6.72858 6.43038 6.8127L6.63345 7.2696C6.57036 7.29764 6.49649 7.26923 6.46845 7.20615L6.92536 7.00308ZM6.73498 7.49806C6.92424 7.41394 7.00947 7.19233 6.92536 7.00308L6.46845 7.20615C6.44042 7.14306 6.46883 7.06919 6.53191 7.04115L6.73498 7.49806ZM5.15859 8.77398C5.50607 8.25276 6.01221 7.81929 6.73498 7.49806L6.53191 7.04115C5.73117 7.39704 5.14757 7.88913 4.74256 8.49663L5.15859 8.77398Z" fill="white" mask="url(#path-1-inside-1_630_6864)"/>
</g>
</g>
</g>
</g>
</g>
<defs>
<clipPath id="clip0_630_6864">
<rect width="1440" height="5626" fill="white" transform="translate(-266 -61)"/>
</clipPath>
</defs>
</svg>
